<mxfile host="app.diagrams.net" agent="Mozilla/5.0 (X11; Linux x86_64; rv:133.0) Gecko/20100101 Firefox/133.0" version="26.0.16" pages="2">
  <diagram name="Create Course-main" id="zMsTj33JBOp3cGC9s_Di">
    <mxGraphModel dx="3647" dy="1477" grid="1" gridSize="10" guides="1" tooltips="1" connect="1" arrows="1" fold="1" page="0" pageScale="1" pageWidth="850" pageHeight="1100" math="0" shadow="0">
      <root>
        <mxCell id="0" />
        <mxCell id="1" parent="0" />
        <mxCell id="RXWXZDaEMoYCf6Sa7pla-206" style="edgeStyle=orthogonalEdgeStyle;rounded=0;orthogonalLoop=1;jettySize=auto;html=1;entryX=0;entryY=0.5;entryDx=0;entryDy=0;endArrow=none;startFill=0;" edge="1" parent="1">
          <mxGeometry relative="1" as="geometry">
            <mxPoint x="-2015" y="-430" as="sourcePoint" />
            <mxPoint x="-1810" y="-430" as="targetPoint" />
          </mxGeometry>
        </mxCell>
        <mxCell id="RXWXZDaEMoYCf6Sa7pla-207" value="User" style="shape=umlActor;verticalLabelPosition=bottom;verticalAlign=top;html=1;outlineConnect=0;" vertex="1" parent="1">
          <mxGeometry x="-2050" y="-470" width="35" height="70" as="geometry" />
        </mxCell>
        <mxCell id="RXWXZDaEMoYCf6Sa7pla-208" value=":Frontend" style="rounded=0;whiteSpace=wrap;html=1;" vertex="1" parent="1">
          <mxGeometry x="-1810" y="-455" width="130.91" height="40" as="geometry" />
        </mxCell>
        <mxCell id="RXWXZDaEMoYCf6Sa7pla-209" value="" style="endArrow=classic;html=1;rounded=0;" edge="1" parent="1">
          <mxGeometry width="50" height="50" relative="1" as="geometry">
            <mxPoint x="-1990" y="-445" as="sourcePoint" />
            <mxPoint x="-1830" y="-445" as="targetPoint" />
          </mxGeometry>
        </mxCell>
        <mxCell id="RXWXZDaEMoYCf6Sa7pla-210" value="" style="endArrow=classic;html=1;rounded=0;dashed=1;" edge="1" parent="1">
          <mxGeometry width="50" height="50" relative="1" as="geometry">
            <mxPoint x="-1840" y="-415" as="sourcePoint" />
            <mxPoint x="-2000" y="-415" as="targetPoint" />
          </mxGeometry>
        </mxCell>
        <mxCell id="RXWXZDaEMoYCf6Sa7pla-211" value="&amp;nbsp;:Router" style="rounded=0;whiteSpace=wrap;html=1;" vertex="1" parent="1">
          <mxGeometry x="-1470" y="-455" width="130.91" height="40" as="geometry" />
        </mxCell>
        <mxCell id="RXWXZDaEMoYCf6Sa7pla-212" style="edgeStyle=orthogonalEdgeStyle;rounded=0;orthogonalLoop=1;jettySize=auto;html=1;entryX=0;entryY=0.5;entryDx=0;entryDy=0;endArrow=none;startFill=0;" edge="1" parent="1" target="RXWXZDaEMoYCf6Sa7pla-211">
          <mxGeometry relative="1" as="geometry">
            <mxPoint x="-1679.09" y="-435" as="sourcePoint" />
            <mxPoint x="-1474.09" y="-435" as="targetPoint" />
          </mxGeometry>
        </mxCell>
        <mxCell id="RXWXZDaEMoYCf6Sa7pla-213" value="" style="endArrow=classic;html=1;rounded=0;" edge="1" parent="1">
          <mxGeometry width="50" height="50" relative="1" as="geometry">
            <mxPoint x="-1654.09" y="-450" as="sourcePoint" />
            <mxPoint x="-1494.09" y="-450" as="targetPoint" />
          </mxGeometry>
        </mxCell>
        <mxCell id="RXWXZDaEMoYCf6Sa7pla-214" value="" style="endArrow=classic;html=1;rounded=0;dashed=1;" edge="1" parent="1">
          <mxGeometry width="50" height="50" relative="1" as="geometry">
            <mxPoint x="-1504.09" y="-420" as="sourcePoint" />
            <mxPoint x="-1664.09" y="-420" as="targetPoint" />
          </mxGeometry>
        </mxCell>
        <mxCell id="RXWXZDaEMoYCf6Sa7pla-215" value="&amp;nbsp;" style="text;whiteSpace=wrap;html=1;" vertex="1" parent="1">
          <mxGeometry x="-1570" y="-470" width="40" height="40" as="geometry" />
        </mxCell>
        <mxCell id="RXWXZDaEMoYCf6Sa7pla-216" value="&amp;nbsp;:ClassController" style="rounded=0;whiteSpace=wrap;html=1;" vertex="1" parent="1">
          <mxGeometry x="-1130" y="-455" width="130.91" height="40" as="geometry" />
        </mxCell>
        <mxCell id="RXWXZDaEMoYCf6Sa7pla-217" style="edgeStyle=orthogonalEdgeStyle;rounded=0;orthogonalLoop=1;jettySize=auto;html=1;entryX=0;entryY=0.5;entryDx=0;entryDy=0;endArrow=none;startFill=0;" edge="1" parent="1" target="RXWXZDaEMoYCf6Sa7pla-216">
          <mxGeometry relative="1" as="geometry">
            <mxPoint x="-1339.09" y="-435" as="sourcePoint" />
            <mxPoint x="-1134.09" y="-435" as="targetPoint" />
          </mxGeometry>
        </mxCell>
        <mxCell id="RXWXZDaEMoYCf6Sa7pla-218" value="" style="endArrow=classic;html=1;rounded=0;" edge="1" parent="1">
          <mxGeometry width="50" height="50" relative="1" as="geometry">
            <mxPoint x="-1314.09" y="-450" as="sourcePoint" />
            <mxPoint x="-1154.09" y="-450" as="targetPoint" />
          </mxGeometry>
        </mxCell>
        <mxCell id="RXWXZDaEMoYCf6Sa7pla-219" value="" style="endArrow=classic;html=1;rounded=0;dashed=1;" edge="1" parent="1">
          <mxGeometry width="50" height="50" relative="1" as="geometry">
            <mxPoint x="-1164.09" y="-420" as="sourcePoint" />
            <mxPoint x="-1324.09" y="-420" as="targetPoint" />
          </mxGeometry>
        </mxCell>
        <mxCell id="RXWXZDaEMoYCf6Sa7pla-220" value="&amp;nbsp;:ClassService" style="rounded=0;whiteSpace=wrap;html=1;" vertex="1" parent="1">
          <mxGeometry x="-790" y="-455" width="130.91" height="40" as="geometry" />
        </mxCell>
        <mxCell id="RXWXZDaEMoYCf6Sa7pla-221" style="edgeStyle=orthogonalEdgeStyle;rounded=0;orthogonalLoop=1;jettySize=auto;html=1;entryX=0;entryY=0.5;entryDx=0;entryDy=0;endArrow=none;startFill=0;" edge="1" parent="1" target="RXWXZDaEMoYCf6Sa7pla-220">
          <mxGeometry relative="1" as="geometry">
            <mxPoint x="-999.0899999999999" y="-435" as="sourcePoint" />
            <mxPoint x="-794.0899999999999" y="-435" as="targetPoint" />
          </mxGeometry>
        </mxCell>
        <mxCell id="RXWXZDaEMoYCf6Sa7pla-222" value="" style="endArrow=classic;html=1;rounded=0;" edge="1" parent="1">
          <mxGeometry width="50" height="50" relative="1" as="geometry">
            <mxPoint x="-974.0899999999999" y="-450" as="sourcePoint" />
            <mxPoint x="-814.0899999999999" y="-450" as="targetPoint" />
          </mxGeometry>
        </mxCell>
        <mxCell id="RXWXZDaEMoYCf6Sa7pla-223" value="" style="endArrow=classic;html=1;rounded=0;dashed=1;" edge="1" parent="1">
          <mxGeometry width="50" height="50" relative="1" as="geometry">
            <mxPoint x="-819.9999999999999" y="-420" as="sourcePoint" />
            <mxPoint x="-979.9999999999999" y="-420" as="targetPoint" />
          </mxGeometry>
        </mxCell>
        <mxCell id="RXWXZDaEMoYCf6Sa7pla-224" style="edgeStyle=orthogonalEdgeStyle;rounded=0;orthogonalLoop=1;jettySize=auto;html=1;endArrow=none;startFill=0;" edge="1" parent="1" source="RXWXZDaEMoYCf6Sa7pla-225" target="RXWXZDaEMoYCf6Sa7pla-245">
          <mxGeometry relative="1" as="geometry" />
        </mxCell>
        <mxCell id="RXWXZDaEMoYCf6Sa7pla-225" value="&amp;nbsp;:ClassRepository" style="rounded=0;whiteSpace=wrap;html=1;" vertex="1" parent="1">
          <mxGeometry x="-449.99999999999994" y="-455" width="130.91" height="40" as="geometry" />
        </mxCell>
        <mxCell id="RXWXZDaEMoYCf6Sa7pla-226" style="edgeStyle=orthogonalEdgeStyle;rounded=0;orthogonalLoop=1;jettySize=auto;html=1;entryX=0;entryY=0.5;entryDx=0;entryDy=0;endArrow=none;startFill=0;" edge="1" parent="1" target="RXWXZDaEMoYCf6Sa7pla-225">
          <mxGeometry relative="1" as="geometry">
            <mxPoint x="-659.0899999999999" y="-435" as="sourcePoint" />
            <mxPoint x="-454.08999999999986" y="-435" as="targetPoint" />
          </mxGeometry>
        </mxCell>
        <mxCell id="RXWXZDaEMoYCf6Sa7pla-227" value="" style="endArrow=classic;html=1;rounded=0;" edge="1" parent="1">
          <mxGeometry width="50" height="50" relative="1" as="geometry">
            <mxPoint x="-634.0899999999999" y="-450" as="sourcePoint" />
            <mxPoint x="-474.08999999999986" y="-450" as="targetPoint" />
          </mxGeometry>
        </mxCell>
        <mxCell id="RXWXZDaEMoYCf6Sa7pla-228" value="" style="endArrow=classic;html=1;rounded=0;dashed=1;" edge="1" parent="1">
          <mxGeometry width="50" height="50" relative="1" as="geometry">
            <mxPoint x="-469.9999999999999" y="-420" as="sourcePoint" />
            <mxPoint x="-629.9999999999999" y="-420" as="targetPoint" />
          </mxGeometry>
        </mxCell>
        <mxCell id="RXWXZDaEMoYCf6Sa7pla-229" style="edgeStyle=orthogonalEdgeStyle;rounded=0;orthogonalLoop=1;jettySize=auto;html=1;entryX=0.5;entryY=1;entryDx=0;entryDy=0;endArrow=none;startFill=0;" edge="1" parent="1" source="RXWXZDaEMoYCf6Sa7pla-230" target="RXWXZDaEMoYCf6Sa7pla-211">
          <mxGeometry relative="1" as="geometry" />
        </mxCell>
        <mxCell id="RXWXZDaEMoYCf6Sa7pla-230" value="&amp;nbsp;:Middleware" style="rounded=0;whiteSpace=wrap;html=1;" vertex="1" parent="1">
          <mxGeometry x="-1470" y="-180" width="130.91" height="40" as="geometry" />
        </mxCell>
        <mxCell id="RXWXZDaEMoYCf6Sa7pla-231" value="" style="endArrow=classic;html=1;rounded=0;" edge="1" parent="1">
          <mxGeometry width="50" height="50" relative="1" as="geometry">
            <mxPoint x="-1420" y="-190" as="sourcePoint" />
            <mxPoint x="-1420" y="-390" as="targetPoint" />
          </mxGeometry>
        </mxCell>
        <mxCell id="RXWXZDaEMoYCf6Sa7pla-232" value="" style="endArrow=classic;html=1;rounded=0;dashed=1;" edge="1" parent="1">
          <mxGeometry width="50" height="50" relative="1" as="geometry">
            <mxPoint x="-1390" y="-390" as="sourcePoint" />
            <mxPoint x="-1390" y="-190" as="targetPoint" />
          </mxGeometry>
        </mxCell>
        <mxCell id="RXWXZDaEMoYCf6Sa7pla-233" value="1. GET /api/classes (Fetch user-managed classes)" style="text;html=1;align=center;verticalAlign=middle;resizable=0;points=[];autosize=1;strokeColor=none;fillColor=none;" vertex="1" parent="1">
          <mxGeometry x="-1730" y="-485" width="300" height="30" as="geometry" />
        </mxCell>
        <mxCell id="RXWXZDaEMoYCf6Sa7pla-234" value="2. .Use(Middleware)" style="text;html=1;align=center;verticalAlign=middle;resizable=0;points=[];autosize=1;strokeColor=none;fillColor=none;" vertex="1" parent="1">
          <mxGeometry x="-1560" y="-220" width="140" height="30" as="geometry" />
        </mxCell>
        <mxCell id="RXWXZDaEMoYCf6Sa7pla-235" value="" style="endArrow=none;html=1;rounded=0;entryX=0.221;entryY=0.995;entryDx=0;entryDy=0;entryPerimeter=0;" edge="1" parent="1" target="RXWXZDaEMoYCf6Sa7pla-230">
          <mxGeometry width="50" height="50" relative="1" as="geometry">
            <mxPoint x="-1441" y="-90" as="sourcePoint" />
            <mxPoint x="-1440" y="-140" as="targetPoint" />
          </mxGeometry>
        </mxCell>
        <mxCell id="RXWXZDaEMoYCf6Sa7pla-236" value="" style="endArrow=classic;html=1;rounded=0;" edge="1" parent="1">
          <mxGeometry width="50" height="50" relative="1" as="geometry">
            <mxPoint x="-1390" y="-90" as="sourcePoint" />
            <mxPoint x="-1390" y="-139" as="targetPoint" />
          </mxGeometry>
        </mxCell>
        <mxCell id="RXWXZDaEMoYCf6Sa7pla-237" value="" style="endArrow=none;html=1;rounded=0;" edge="1" parent="1">
          <mxGeometry width="50" height="50" relative="1" as="geometry">
            <mxPoint x="-1440" y="-90" as="sourcePoint" />
            <mxPoint x="-1390" y="-90" as="targetPoint" />
          </mxGeometry>
        </mxCell>
        <mxCell id="RXWXZDaEMoYCf6Sa7pla-238" value="3. .Verify()" style="text;html=1;align=center;verticalAlign=middle;resizable=0;points=[];autosize=1;strokeColor=none;fillColor=none;" vertex="1" parent="1">
          <mxGeometry x="-1460" y="-80" width="80" height="30" as="geometry" />
        </mxCell>
        <mxCell id="RXWXZDaEMoYCf6Sa7pla-239" value="&lt;div align=&quot;left&quot;&gt;5. 401 Unauthorized&lt;/div&gt;&lt;div align=&quot;left&quot;&gt;16. 500 Internal Server Error&lt;/div&gt;&lt;div align=&quot;left&quot;&gt;19. 404 Not Found&lt;/div&gt;&lt;div align=&quot;left&quot;&gt;22. 200 OK&lt;/div&gt;&lt;div align=&quot;left&quot;&gt;&lt;br&gt;&lt;/div&gt;" style="text;html=1;align=left;verticalAlign=middle;resizable=0;points=[];autosize=1;strokeColor=none;fillColor=none;" vertex="1" parent="1">
          <mxGeometry x="-1660" y="-415" width="190" height="90" as="geometry" />
        </mxCell>
        <mxCell id="RXWXZDaEMoYCf6Sa7pla-240" value="&lt;div&gt;6. Show error &quot;Please log in&quot;&lt;/div&gt;&lt;div&gt;17. Show error &quot;Failed to fetch classes&quot;&lt;/div&gt;&lt;div&gt;20. Show message &quot;Class not found&quot;&lt;/div&gt;&lt;div&gt;23. Show classes list&lt;/div&gt;" style="text;html=1;align=left;verticalAlign=middle;resizable=0;points=[];autosize=1;strokeColor=none;fillColor=none;" vertex="1" parent="1">
          <mxGeometry x="-1995" y="-410" width="240" height="70" as="geometry" />
        </mxCell>
        <mxCell id="RXWXZDaEMoYCf6Sa7pla-241" value="&lt;div align=&quot;left&quot;&gt;7. [Authorized] Route to Router&lt;/div&gt;&lt;div align=&quot;left&quot;&gt;4. [Unauthorized (401 Ubauthorized)] 401 Unauthorized&lt;/div&gt;" style="text;html=1;align=left;verticalAlign=middle;resizable=0;points=[];autosize=1;strokeColor=none;fillColor=none;" vertex="1" parent="1">
          <mxGeometry x="-1380" y="-240" width="340" height="40" as="geometry" />
        </mxCell>
        <mxCell id="RXWXZDaEMoYCf6Sa7pla-242" value="8. GetAllClasses()" style="text;html=1;align=center;verticalAlign=middle;resizable=0;points=[];autosize=1;strokeColor=none;fillColor=none;" vertex="1" parent="1">
          <mxGeometry x="-1300" y="-485" width="120" height="30" as="geometry" />
        </mxCell>
        <mxCell id="RXWXZDaEMoYCf6Sa7pla-243" value="9. GetAllClasses()" style="text;html=1;align=center;verticalAlign=middle;resizable=0;points=[];autosize=1;strokeColor=none;fillColor=none;" vertex="1" parent="1">
          <mxGeometry x="-960" y="-485" width="120" height="30" as="geometry" />
        </mxCell>
        <mxCell id="RXWXZDaEMoYCf6Sa7pla-244" value="10. GetAllClasses()" style="text;html=1;align=center;verticalAlign=middle;resizable=0;points=[];autosize=1;strokeColor=none;fillColor=none;" vertex="1" parent="1">
          <mxGeometry x="-625" y="-485" width="130" height="30" as="geometry" />
        </mxCell>
        <mxCell id="RXWXZDaEMoYCf6Sa7pla-245" value="&amp;nbsp;:Database" style="rounded=0;whiteSpace=wrap;html=1;" vertex="1" parent="1">
          <mxGeometry x="-449.99999999999994" y="-210" width="130.91" height="40" as="geometry" />
        </mxCell>
        <mxCell id="RXWXZDaEMoYCf6Sa7pla-246" value="" style="endArrow=classic;html=1;rounded=0;" edge="1" parent="1">
          <mxGeometry width="50" height="50" relative="1" as="geometry">
            <mxPoint x="-400" y="-390" as="sourcePoint" />
            <mxPoint x="-400" y="-230" as="targetPoint" />
          </mxGeometry>
        </mxCell>
        <mxCell id="RXWXZDaEMoYCf6Sa7pla-247" value="" style="endArrow=classic;html=1;rounded=0;dashed=1;" edge="1" parent="1">
          <mxGeometry width="50" height="50" relative="1" as="geometry">
            <mxPoint x="-370" y="-230" as="sourcePoint" />
            <mxPoint x="-370" y="-390" as="targetPoint" />
          </mxGeometry>
        </mxCell>
        <mxCell id="RXWXZDaEMoYCf6Sa7pla-248" value="11. SELECT * FROM classes WHERE owner_id = @user_id" style="text;html=1;align=center;verticalAlign=middle;resizable=0;points=[];autosize=1;strokeColor=none;fillColor=none;" vertex="1" parent="1">
          <mxGeometry x="-749.09" y="-310" width="350" height="30" as="geometry" />
        </mxCell>
        <mxCell id="RXWXZDaEMoYCf6Sa7pla-249" value="12. Classes, Error" style="text;html=1;align=center;verticalAlign=middle;resizable=0;points=[];autosize=1;strokeColor=none;fillColor=none;" vertex="1" parent="1">
          <mxGeometry x="-375.00000000000006" y="-310" width="120" height="30" as="geometry" />
        </mxCell>
        <mxCell id="RXWXZDaEMoYCf6Sa7pla-250" value="14. Classes, Error" style="text;html=1;align=center;verticalAlign=middle;resizable=0;points=[];autosize=1;strokeColor=none;fillColor=none;" vertex="1" parent="1">
          <mxGeometry x="-965" y="-420" width="120" height="30" as="geometry" />
        </mxCell>
        <mxCell id="RXWXZDaEMoYCf6Sa7pla-251" value="13. Classes, Error" style="text;html=1;align=center;verticalAlign=middle;resizable=0;points=[];autosize=1;strokeColor=none;fillColor=none;" vertex="1" parent="1">
          <mxGeometry x="-630" y="-420" width="120" height="30" as="geometry" />
        </mxCell>
        <mxCell id="RXWXZDaEMoYCf6Sa7pla-252" value="&lt;div align=&quot;left&quot;&gt;15. [Error != Null] 500 Internal Server Error&lt;/div&gt;&lt;div align=&quot;left&quot;&gt;18. [Classes == Null] 404 Not Found&lt;/div&gt;&lt;div align=&quot;left&quot;&gt;21. 200 OK&lt;/div&gt;" style="text;html=1;align=left;verticalAlign=middle;resizable=0;points=[];autosize=1;strokeColor=none;fillColor=none;" vertex="1" parent="1">
          <mxGeometry x="-1320" y="-410" width="270" height="60" as="geometry" />
        </mxCell>
        <mxCell id="RXWXZDaEMoYCf6Sa7pla-253" value="&lt;font style=&quot;font-size: 20px;&quot;&gt;Create Course&lt;/font&gt;" style="text;html=1;align=center;verticalAlign=middle;whiteSpace=wrap;rounded=0;" vertex="1" parent="1">
          <mxGeometry x="-1510" y="-570" width="450" height="30" as="geometry" />
        </mxCell>
      </root>
    </mxGraphModel>
  </diagram>
  <diagram id="SYvuglyRbv3lYP8CKXc0" name="Create Course - [opt][Authorized][User selects a class to create course]">
    <mxGraphModel dx="4449" dy="1911" grid="1" gridSize="10" guides="1" tooltips="1" connect="1" arrows="1" fold="1" page="0" pageScale="1" pageWidth="850" pageHeight="1100" math="0" shadow="0">
      <root>
        <mxCell id="0" />
        <mxCell id="1" parent="0" />
        <mxCell id="KR98PwLxCJP_zgEaJfEC-1" style="edgeStyle=orthogonalEdgeStyle;rounded=0;orthogonalLoop=1;jettySize=auto;html=1;entryX=0;entryY=0.5;entryDx=0;entryDy=0;endArrow=none;startFill=0;" edge="1" parent="1">
          <mxGeometry relative="1" as="geometry">
            <mxPoint x="-2025" y="-440" as="sourcePoint" />
            <mxPoint x="-1820" y="-440" as="targetPoint" />
          </mxGeometry>
        </mxCell>
        <mxCell id="KR98PwLxCJP_zgEaJfEC-2" value="User" style="shape=umlActor;verticalLabelPosition=bottom;verticalAlign=top;html=1;outlineConnect=0;" vertex="1" parent="1">
          <mxGeometry x="-2060" y="-480" width="35" height="70" as="geometry" />
        </mxCell>
        <mxCell id="KR98PwLxCJP_zgEaJfEC-3" value=":Frontend" style="rounded=0;whiteSpace=wrap;html=1;" vertex="1" parent="1">
          <mxGeometry x="-1820" y="-465" width="130.91" height="40" as="geometry" />
        </mxCell>
        <mxCell id="KR98PwLxCJP_zgEaJfEC-4" value="" style="endArrow=classic;html=1;rounded=0;" edge="1" parent="1">
          <mxGeometry width="50" height="50" relative="1" as="geometry">
            <mxPoint x="-2000" y="-455" as="sourcePoint" />
            <mxPoint x="-1840" y="-455" as="targetPoint" />
          </mxGeometry>
        </mxCell>
        <mxCell id="KR98PwLxCJP_zgEaJfEC-5" value="" style="endArrow=classic;html=1;rounded=0;dashed=1;" edge="1" parent="1">
          <mxGeometry width="50" height="50" relative="1" as="geometry">
            <mxPoint x="-1850" y="-425" as="sourcePoint" />
            <mxPoint x="-2010" y="-425" as="targetPoint" />
          </mxGeometry>
        </mxCell>
        <mxCell id="KR98PwLxCJP_zgEaJfEC-6" value="&amp;nbsp;:Router" style="rounded=0;whiteSpace=wrap;html=1;" vertex="1" parent="1">
          <mxGeometry x="-1480" y="-465" width="130.91" height="40" as="geometry" />
        </mxCell>
        <mxCell id="KR98PwLxCJP_zgEaJfEC-7" style="edgeStyle=orthogonalEdgeStyle;rounded=0;orthogonalLoop=1;jettySize=auto;html=1;entryX=0;entryY=0.5;entryDx=0;entryDy=0;endArrow=none;startFill=0;" edge="1" parent="1" target="KR98PwLxCJP_zgEaJfEC-6">
          <mxGeometry relative="1" as="geometry">
            <mxPoint x="-1689.09" y="-445" as="sourcePoint" />
            <mxPoint x="-1484.09" y="-445" as="targetPoint" />
          </mxGeometry>
        </mxCell>
        <mxCell id="KR98PwLxCJP_zgEaJfEC-8" value="" style="endArrow=classic;html=1;rounded=0;" edge="1" parent="1">
          <mxGeometry width="50" height="50" relative="1" as="geometry">
            <mxPoint x="-1664.09" y="-460" as="sourcePoint" />
            <mxPoint x="-1504.09" y="-460" as="targetPoint" />
          </mxGeometry>
        </mxCell>
        <mxCell id="KR98PwLxCJP_zgEaJfEC-9" value="" style="endArrow=classic;html=1;rounded=0;dashed=1;" edge="1" parent="1">
          <mxGeometry width="50" height="50" relative="1" as="geometry">
            <mxPoint x="-1514.09" y="-430" as="sourcePoint" />
            <mxPoint x="-1674.09" y="-430" as="targetPoint" />
          </mxGeometry>
        </mxCell>
        <mxCell id="KR98PwLxCJP_zgEaJfEC-10" value="&amp;nbsp;" style="text;whiteSpace=wrap;html=1;" vertex="1" parent="1">
          <mxGeometry x="-1580" y="-480" width="40" height="40" as="geometry" />
        </mxCell>
        <mxCell id="KR98PwLxCJP_zgEaJfEC-11" value="&amp;nbsp;:CourseController" style="rounded=0;whiteSpace=wrap;html=1;" vertex="1" parent="1">
          <mxGeometry x="-1140" y="-465" width="130.91" height="40" as="geometry" />
        </mxCell>
        <mxCell id="KR98PwLxCJP_zgEaJfEC-12" style="edgeStyle=orthogonalEdgeStyle;rounded=0;orthogonalLoop=1;jettySize=auto;html=1;entryX=0;entryY=0.5;entryDx=0;entryDy=0;endArrow=none;startFill=0;" edge="1" parent="1" target="KR98PwLxCJP_zgEaJfEC-11">
          <mxGeometry relative="1" as="geometry">
            <mxPoint x="-1349.09" y="-445" as="sourcePoint" />
            <mxPoint x="-1144.09" y="-445" as="targetPoint" />
          </mxGeometry>
        </mxCell>
        <mxCell id="KR98PwLxCJP_zgEaJfEC-13" value="" style="endArrow=classic;html=1;rounded=0;" edge="1" parent="1">
          <mxGeometry width="50" height="50" relative="1" as="geometry">
            <mxPoint x="-1324.09" y="-460" as="sourcePoint" />
            <mxPoint x="-1164.09" y="-460" as="targetPoint" />
          </mxGeometry>
        </mxCell>
        <mxCell id="KR98PwLxCJP_zgEaJfEC-14" value="" style="endArrow=classic;html=1;rounded=0;dashed=1;" edge="1" parent="1">
          <mxGeometry width="50" height="50" relative="1" as="geometry">
            <mxPoint x="-1174.09" y="-430" as="sourcePoint" />
            <mxPoint x="-1334.09" y="-430" as="targetPoint" />
          </mxGeometry>
        </mxCell>
        <mxCell id="KR98PwLxCJP_zgEaJfEC-15" value="&amp;nbsp;:CourseService" style="rounded=0;whiteSpace=wrap;html=1;" vertex="1" parent="1">
          <mxGeometry x="-800" y="-465" width="130.91" height="40" as="geometry" />
        </mxCell>
        <mxCell id="KR98PwLxCJP_zgEaJfEC-16" style="edgeStyle=orthogonalEdgeStyle;rounded=0;orthogonalLoop=1;jettySize=auto;html=1;entryX=0;entryY=0.5;entryDx=0;entryDy=0;endArrow=none;startFill=0;" edge="1" parent="1" target="KR98PwLxCJP_zgEaJfEC-15">
          <mxGeometry relative="1" as="geometry">
            <mxPoint x="-1009.0899999999999" y="-445" as="sourcePoint" />
            <mxPoint x="-804.0899999999999" y="-445" as="targetPoint" />
          </mxGeometry>
        </mxCell>
        <mxCell id="KR98PwLxCJP_zgEaJfEC-17" value="" style="endArrow=classic;html=1;rounded=0;" edge="1" parent="1">
          <mxGeometry width="50" height="50" relative="1" as="geometry">
            <mxPoint x="-984.0899999999999" y="-460" as="sourcePoint" />
            <mxPoint x="-824.0899999999999" y="-460" as="targetPoint" />
          </mxGeometry>
        </mxCell>
        <mxCell id="KR98PwLxCJP_zgEaJfEC-18" value="" style="endArrow=classic;html=1;rounded=0;dashed=1;" edge="1" parent="1">
          <mxGeometry width="50" height="50" relative="1" as="geometry">
            <mxPoint x="-829.9999999999999" y="-430" as="sourcePoint" />
            <mxPoint x="-989.9999999999999" y="-430" as="targetPoint" />
          </mxGeometry>
        </mxCell>
        <mxCell id="KR98PwLxCJP_zgEaJfEC-19" style="edgeStyle=orthogonalEdgeStyle;rounded=0;orthogonalLoop=1;jettySize=auto;html=1;endArrow=none;startFill=0;" edge="1" parent="1" source="KR98PwLxCJP_zgEaJfEC-20" target="KR98PwLxCJP_zgEaJfEC-25">
          <mxGeometry relative="1" as="geometry" />
        </mxCell>
        <mxCell id="KR98PwLxCJP_zgEaJfEC-20" value="&amp;nbsp;:CourseRepository" style="rounded=0;whiteSpace=wrap;html=1;" vertex="1" parent="1">
          <mxGeometry x="-459.99999999999994" y="-465" width="130.91" height="40" as="geometry" />
        </mxCell>
        <mxCell id="KR98PwLxCJP_zgEaJfEC-21" style="edgeStyle=orthogonalEdgeStyle;rounded=0;orthogonalLoop=1;jettySize=auto;html=1;entryX=0;entryY=0.5;entryDx=0;entryDy=0;endArrow=none;startFill=0;" edge="1" parent="1" target="KR98PwLxCJP_zgEaJfEC-20">
          <mxGeometry relative="1" as="geometry">
            <mxPoint x="-669.0899999999999" y="-445" as="sourcePoint" />
            <mxPoint x="-464.08999999999986" y="-445" as="targetPoint" />
          </mxGeometry>
        </mxCell>
        <mxCell id="KR98PwLxCJP_zgEaJfEC-22" value="" style="endArrow=classic;html=1;rounded=0;" edge="1" parent="1">
          <mxGeometry width="50" height="50" relative="1" as="geometry">
            <mxPoint x="-644.0899999999999" y="-460" as="sourcePoint" />
            <mxPoint x="-484.08999999999986" y="-460" as="targetPoint" />
          </mxGeometry>
        </mxCell>
        <mxCell id="KR98PwLxCJP_zgEaJfEC-23" value="" style="endArrow=classic;html=1;rounded=0;dashed=1;" edge="1" parent="1">
          <mxGeometry width="50" height="50" relative="1" as="geometry">
            <mxPoint x="-479.9999999999999" y="-430" as="sourcePoint" />
            <mxPoint x="-639.9999999999999" y="-430" as="targetPoint" />
          </mxGeometry>
        </mxCell>
        <mxCell id="KR98PwLxCJP_zgEaJfEC-24" value="&lt;div align=&quot;left&quot;&gt;1. .handleCreateCourseClick(classId)&lt;/div&gt;&lt;div align=&quot;left&quot;&gt;3. .handleCreateCourseSubmit(name,description)&lt;br&gt;&lt;/div&gt;" style="text;html=1;align=left;verticalAlign=middle;resizable=0;points=[];autosize=1;strokeColor=none;fillColor=none;" vertex="1" parent="1">
          <mxGeometry x="-2040" y="-530" width="300" height="40" as="geometry" />
        </mxCell>
        <mxCell id="KR98PwLxCJP_zgEaJfEC-25" value="&amp;nbsp;:Database" style="rounded=0;whiteSpace=wrap;html=1;" vertex="1" parent="1">
          <mxGeometry x="-459.99999999999994" y="-220" width="130.91" height="40" as="geometry" />
        </mxCell>
        <mxCell id="KR98PwLxCJP_zgEaJfEC-26" value="" style="endArrow=classic;html=1;rounded=0;" edge="1" parent="1">
          <mxGeometry width="50" height="50" relative="1" as="geometry">
            <mxPoint x="-410" y="-400" as="sourcePoint" />
            <mxPoint x="-410" y="-240" as="targetPoint" />
          </mxGeometry>
        </mxCell>
        <mxCell id="KR98PwLxCJP_zgEaJfEC-27" value="" style="endArrow=classic;html=1;rounded=0;dashed=1;" edge="1" parent="1">
          <mxGeometry width="50" height="50" relative="1" as="geometry">
            <mxPoint x="-380" y="-240" as="sourcePoint" />
            <mxPoint x="-380" y="-400" as="targetPoint" />
          </mxGeometry>
        </mxCell>
        <mxCell id="KR98PwLxCJP_zgEaJfEC-28" value="&lt;div&gt;16. INSERT INTO courses (class_id, name, description)&amp;nbsp;&lt;/div&gt;&lt;div align=&quot;left&quot;&gt;VALUES (@class_id, @name, @description)&lt;/div&gt;" style="text;html=1;align=center;verticalAlign=middle;resizable=0;points=[];autosize=1;strokeColor=none;fillColor=none;" vertex="1" parent="1">
          <mxGeometry x="-750" y="-325" width="330" height="40" as="geometry" />
        </mxCell>
        <mxCell id="KR98PwLxCJP_zgEaJfEC-29" value="17. Course, Error" style="text;html=1;align=center;verticalAlign=middle;resizable=0;points=[];autosize=1;strokeColor=none;fillColor=none;" vertex="1" parent="1">
          <mxGeometry x="-385.00000000000006" y="-320" width="120" height="30" as="geometry" />
        </mxCell>
        <mxCell id="KR98PwLxCJP_zgEaJfEC-31" value="&lt;div align=&quot;left&quot;&gt;18. Course, Error&lt;/div&gt;&lt;div align=&quot;left&quot;&gt;&lt;br&gt;&lt;/div&gt;" style="text;html=1;align=left;verticalAlign=middle;resizable=0;points=[];autosize=1;strokeColor=none;fillColor=none;" vertex="1" parent="1">
          <mxGeometry x="-659.09" y="-430" width="120" height="40" as="geometry" />
        </mxCell>
        <mxCell id="KR98PwLxCJP_zgEaJfEC-32" value="&lt;div align=&quot;left&quot;&gt;2. .Show create course form&lt;/div&gt;&lt;div align=&quot;left&quot;&gt;5.[Invalid] Show error &quot;Invalid course name or description&quot;&lt;/div&gt;&lt;div align=&quot;left&quot;&gt;11. Show error &quot;Please log in&quot;&lt;/div&gt;&lt;div align=&quot;left&quot;&gt;22. Show error &quot;Failed to create course&quot;&lt;/div&gt;&lt;div align=&quot;left&quot;&gt;25. Show message &quot;Failed to create course&quot;&lt;/div&gt;&lt;div align=&quot;left&quot;&gt;28. Show message &quot;Course created&quot;&lt;br&gt;&lt;/div&gt;&lt;div align=&quot;left&quot;&gt;&lt;br&gt;&lt;/div&gt;" style="text;html=1;align=center;verticalAlign=middle;resizable=0;points=[];autosize=1;strokeColor=none;fillColor=none;" vertex="1" parent="1">
          <mxGeometry x="-2025" y="-425" width="360" height="110" as="geometry" />
        </mxCell>
        <mxCell id="KR98PwLxCJP_zgEaJfEC-33" value="6. [Valid] POST /api/courses/{classId}" style="text;html=1;align=center;verticalAlign=middle;resizable=0;points=[];autosize=1;strokeColor=none;fillColor=none;" vertex="1" parent="1">
          <mxGeometry x="-1689.09" y="-495" width="230" height="30" as="geometry" />
        </mxCell>
        <mxCell id="KR98PwLxCJP_zgEaJfEC-34" value="13. .CreateCourse(classId, name, description)" style="text;html=1;align=center;verticalAlign=middle;resizable=0;points=[];autosize=1;strokeColor=none;fillColor=none;" vertex="1" parent="1">
          <mxGeometry x="-1389.09" y="-495" width="280" height="30" as="geometry" />
        </mxCell>
        <mxCell id="KR98PwLxCJP_zgEaJfEC-35" value="14. .CreateCourse(classId, name, description)" style="text;html=1;align=center;verticalAlign=middle;resizable=0;points=[];autosize=1;strokeColor=none;fillColor=none;" vertex="1" parent="1">
          <mxGeometry x="-1060" y="-495" width="280" height="30" as="geometry" />
        </mxCell>
        <mxCell id="KR98PwLxCJP_zgEaJfEC-36" value="15. .CreateCourse(classId, name, description)" style="text;html=1;align=left;verticalAlign=middle;resizable=0;points=[];autosize=1;strokeColor=none;fillColor=none;" vertex="1" parent="1">
          <mxGeometry x="-659.0899999999999" y="-500" width="280" height="30" as="geometry" />
        </mxCell>
        <mxCell id="KR98PwLxCJP_zgEaJfEC-37" value="&lt;div align=&quot;left&quot;&gt;20. [Error != Null] 500 Internal Server Error&lt;/div&gt;&lt;div align=&quot;left&quot;&gt;23. [Course == Null] 404 Not Found&lt;/div&gt;&lt;div align=&quot;left&quot;&gt;26.&amp;nbsp; 200 OK&lt;br&gt;&lt;/div&gt;" style="text;html=1;align=left;verticalAlign=middle;resizable=0;points=[];autosize=1;strokeColor=none;fillColor=none;" vertex="1" parent="1">
          <mxGeometry x="-1330" y="-425" width="270" height="60" as="geometry" />
        </mxCell>
        <mxCell id="KR98PwLxCJP_zgEaJfEC-38" value="&lt;div align=&quot;left&quot;&gt;10. 401 Unauthorized&lt;/div&gt;&lt;div align=&quot;left&quot;&gt;21. 500 Internal Server Error&lt;/div&gt;&lt;div align=&quot;left&quot;&gt;24. 404 Not Found&lt;/div&gt;&lt;div align=&quot;left&quot;&gt;27. 200 OK&lt;br&gt;&lt;/div&gt;" style="text;html=1;align=left;verticalAlign=middle;resizable=0;points=[];autosize=1;strokeColor=none;fillColor=none;" vertex="1" parent="1">
          <mxGeometry x="-1665" y="-430" width="190" height="70" as="geometry" />
        </mxCell>
        <mxCell id="KR98PwLxCJP_zgEaJfEC-39" value="&lt;font style=&quot;font-size: 20px;&quot;&gt;&lt;span&gt;Create Course - [opt][Authorized][User selects a class to create course]&lt;br&gt;&lt;/span&gt;&lt;/font&gt;" style="text;html=1;align=center;verticalAlign=middle;whiteSpace=wrap;rounded=0;fontStyle=0;fontSize=20;" vertex="1" parent="1">
          <mxGeometry x="-1580" y="-630" width="900" height="30" as="geometry" />
        </mxCell>
        <mxCell id="nb68BWvINp59yBWTfA0f-1" value="" style="endArrow=none;html=1;rounded=0;exitX=0.611;exitY=0.008;exitDx=0;exitDy=0;exitPerimeter=0;" edge="1" parent="1" source="KR98PwLxCJP_zgEaJfEC-3">
          <mxGeometry width="50" height="50" relative="1" as="geometry">
            <mxPoint x="-1740" y="-470" as="sourcePoint" />
            <mxPoint x="-1740" y="-490" as="targetPoint" />
          </mxGeometry>
        </mxCell>
        <mxCell id="nb68BWvINp59yBWTfA0f-2" value="" style="endArrow=none;html=1;rounded=0;" edge="1" parent="1">
          <mxGeometry width="50" height="50" relative="1" as="geometry">
            <mxPoint x="-1740" y="-490" as="sourcePoint" />
            <mxPoint x="-1710" y="-490" as="targetPoint" />
          </mxGeometry>
        </mxCell>
        <mxCell id="nb68BWvINp59yBWTfA0f-3" value="" style="endArrow=classic;html=1;rounded=0;entryX=0.838;entryY=-0.002;entryDx=0;entryDy=0;entryPerimeter=0;" edge="1" parent="1" target="KR98PwLxCJP_zgEaJfEC-3">
          <mxGeometry width="50" height="50" relative="1" as="geometry">
            <mxPoint x="-1710" y="-490" as="sourcePoint" />
            <mxPoint x="-1690" y="-510" as="targetPoint" />
          </mxGeometry>
        </mxCell>
        <mxCell id="nb68BWvINp59yBWTfA0f-4" value="4. .Validate(name,description)" style="text;html=1;align=center;verticalAlign=middle;resizable=0;points=[];autosize=1;strokeColor=none;fillColor=none;" vertex="1" parent="1">
          <mxGeometry x="-1755" y="-525" width="190" height="30" as="geometry" />
        </mxCell>
        <mxCell id="zKWSWwVIFWi1YPVgnnLf-1" style="edgeStyle=orthogonalEdgeStyle;rounded=0;orthogonalLoop=1;jettySize=auto;html=1;entryX=0.5;entryY=1;entryDx=0;entryDy=0;endArrow=none;startFill=0;" edge="1" parent="1" source="zKWSWwVIFWi1YPVgnnLf-2">
          <mxGeometry relative="1" as="geometry">
            <mxPoint x="-1415" y="-425" as="targetPoint" />
          </mxGeometry>
        </mxCell>
        <mxCell id="zKWSWwVIFWi1YPVgnnLf-2" value="&amp;nbsp;:Middleware" style="rounded=0;whiteSpace=wrap;html=1;" vertex="1" parent="1">
          <mxGeometry x="-1480" y="-190" width="130.91" height="40" as="geometry" />
        </mxCell>
        <mxCell id="zKWSWwVIFWi1YPVgnnLf-3" value="" style="endArrow=classic;html=1;rounded=0;" edge="1" parent="1">
          <mxGeometry width="50" height="50" relative="1" as="geometry">
            <mxPoint x="-1430" y="-200" as="sourcePoint" />
            <mxPoint x="-1430" y="-400" as="targetPoint" />
          </mxGeometry>
        </mxCell>
        <mxCell id="zKWSWwVIFWi1YPVgnnLf-4" value="" style="endArrow=classic;html=1;rounded=0;dashed=1;" edge="1" parent="1">
          <mxGeometry width="50" height="50" relative="1" as="geometry">
            <mxPoint x="-1400" y="-400" as="sourcePoint" />
            <mxPoint x="-1400" y="-200" as="targetPoint" />
          </mxGeometry>
        </mxCell>
        <mxCell id="zKWSWwVIFWi1YPVgnnLf-8" value="7. .Use(Middleware)" style="text;html=1;align=center;verticalAlign=middle;resizable=0;points=[];autosize=1;strokeColor=none;fillColor=none;" vertex="1" parent="1">
          <mxGeometry x="-1580" y="-335" width="140" height="30" as="geometry" />
        </mxCell>
        <mxCell id="zKWSWwVIFWi1YPVgnnLf-9" value="&lt;div&gt;9. [Unauthorized (401 Unauthorized)] 401 Unauthorized&lt;/div&gt;&lt;div align=&quot;left&quot;&gt;12.[Authorized] Route to Router&lt;br&gt;&lt;/div&gt;" style="text;html=1;align=center;verticalAlign=middle;resizable=0;points=[];autosize=1;strokeColor=none;fillColor=none;" vertex="1" parent="1">
          <mxGeometry x="-1400" y="-330" width="340" height="40" as="geometry" />
        </mxCell>
        <mxCell id="zKWSWwVIFWi1YPVgnnLf-11" value="19. Course, Error" style="text;html=1;align=left;verticalAlign=middle;resizable=0;points=[];autosize=1;strokeColor=none;fillColor=none;" vertex="1" parent="1">
          <mxGeometry x="-970" y="-435" width="120" height="30" as="geometry" />
        </mxCell>
        <mxCell id="zKWSWwVIFWi1YPVgnnLf-13" value="" style="endArrow=none;html=1;rounded=0;entryX=0.388;entryY=1.06;entryDx=0;entryDy=0;entryPerimeter=0;" edge="1" parent="1" target="zKWSWwVIFWi1YPVgnnLf-2">
          <mxGeometry width="50" height="50" relative="1" as="geometry">
            <mxPoint x="-1430" y="-100" as="sourcePoint" />
            <mxPoint x="-1360" y="-170" as="targetPoint" />
          </mxGeometry>
        </mxCell>
        <mxCell id="zKWSWwVIFWi1YPVgnnLf-14" value="" style="endArrow=none;html=1;rounded=0;" edge="1" parent="1">
          <mxGeometry width="50" height="50" relative="1" as="geometry">
            <mxPoint x="-1430" y="-100" as="sourcePoint" />
            <mxPoint x="-1380" y="-100" as="targetPoint" />
          </mxGeometry>
        </mxCell>
        <mxCell id="zKWSWwVIFWi1YPVgnnLf-15" value="" style="endArrow=classic;html=1;rounded=0;entryX=0.767;entryY=1.01;entryDx=0;entryDy=0;entryPerimeter=0;" edge="1" parent="1" target="zKWSWwVIFWi1YPVgnnLf-2">
          <mxGeometry width="50" height="50" relative="1" as="geometry">
            <mxPoint x="-1380" y="-100" as="sourcePoint" />
            <mxPoint x="-1360" y="-170" as="targetPoint" />
          </mxGeometry>
        </mxCell>
        <mxCell id="zKWSWwVIFWi1YPVgnnLf-16" value="8. Verify()" style="text;html=1;align=center;verticalAlign=middle;resizable=0;points=[];autosize=1;strokeColor=none;fillColor=none;" vertex="1" parent="1">
          <mxGeometry x="-1440" y="-100" width="80" height="30" as="geometry" />
        </mxCell>
      </root>
    </mxGraphModel>
  </diagram>
</mxfile>
